<svg width="11" height="17" viewBox="0 0 11 17" fill="none" xmlns="http://www.w3.org/2000/svg">
<path d="M1 16H1.72671M2.45342 16H1.72671M1.72671 16V9.08749M1.72671 2.19023V3.21261M1.72671 2.19023V5.18108M1.72671 2.19023C1.89441 2.18515 2.22981 2.059 2.22981 1.59512C2.22981 1.13123 1.89441 1.00509 1.72671 1C1.55435 1 1.20963 1.11902 1.20963 1.59512C1.20963 2.07121 1.55435 2.19023 1.72671 2.19023ZM1.72671 3.21261H10L8.11335 6.15768L10 9.08749H1.72671M1.72671 3.21261V5.18108M1.72671 9.08749V7.14954M1.72671 7.14954H3.05435M1.72671 7.14954V5.18108M1.72671 5.18108H3.73913" stroke="white"/>
</svg>
