<svg width="18" height="13" viewBox="0 0 18 13" fill="none" xmlns="http://www.w3.org/2000/svg">
<path d="M9.00002 9.05089L6.77317 7.09075L0.406311 12.5794C0.63774 12.7953 0.950168 12.9298 1.29474 12.9298H16.7053C17.0486 12.9298 17.3597 12.7953 17.5899 12.5794L11.2269 7.09075L9.00002 9.05089Z" fill="white"/>
<path d="M17.5937 0.350394C17.3623 0.133175 17.0511 0 16.7053 0H1.2947C0.951416 0 0.640273 0.134468 0.408844 0.35298L8.99999 7.75779L17.5937 0.350394Z" fill="white"/>
<path d="M3.05176e-05 1.13531V11.8773L6.21388 6.56709L3.05176e-05 1.13531Z" fill="white"/>
<path d="M11.7862 6.56702L18 11.8773V1.13133L11.7862 6.56702Z" fill="white"/>
</svg>
