<svg width="221" height="58" viewBox="0 0 221 58" fill="none" xmlns="http://www.w3.org/2000/svg">
<rect width="221" height="58" rx="15" fill="#E8E8E8"/>
<path d="M76.4004 35.6201C76.4004 35.1025 76.1416 34.6973 75.624 34.4043C75.1162 34.1016 74.2959 33.833 73.1631 33.5986C69.3936 32.8076 67.5088 31.2061 67.5088 28.7939C67.5088 27.3877 68.0898 26.2158 69.252 25.2783C70.4238 24.3311 71.9521 23.8574 73.8369 23.8574C75.8486 23.8574 77.4551 24.3311 78.6562 25.2783C79.8672 26.2256 80.4727 27.4561 80.4727 28.9697H76.2393C76.2393 28.3643 76.0439 27.8662 75.6533 27.4756C75.2627 27.0752 74.6523 26.875 73.8223 26.875C73.1094 26.875 72.5576 27.0361 72.167 27.3584C71.7764 27.6807 71.5811 28.0908 71.5811 28.5889C71.5811 29.0576 71.8008 29.4385 72.2402 29.7314C72.6895 30.0146 73.4414 30.2637 74.4961 30.4785C75.5508 30.6836 76.4395 30.918 77.1621 31.1816C79.3984 32.002 80.5166 33.4229 80.5166 35.4443C80.5166 36.8896 79.8965 38.0615 78.6562 38.96C77.416 39.8486 75.8145 40.293 73.8516 40.293C72.5234 40.293 71.3418 40.0586 70.3066 39.5898C69.2812 39.1113 68.4756 38.4619 67.8896 37.6416C67.3037 36.8115 67.0107 35.918 67.0107 34.9609H71.0244C71.0635 35.7129 71.3418 36.2891 71.8594 36.6895C72.377 37.0898 73.0703 37.29 73.9395 37.29C74.75 37.29 75.3604 37.1387 75.7705 36.8359C76.1904 36.5234 76.4004 36.1182 76.4004 35.6201ZM87.7236 40H83.4756V24.1504H87.7236V40ZM83.2266 20.0488C83.2266 19.4141 83.4365 18.8916 83.8564 18.4814C84.2861 18.0713 84.8672 17.8662 85.5996 17.8662C86.3223 17.8662 86.8984 18.0713 87.3281 18.4814C87.7578 18.8916 87.9727 19.4141 87.9727 20.0488C87.9727 20.6934 87.7529 21.2207 87.3135 21.6309C86.8838 22.041 86.3125 22.2461 85.5996 22.2461C84.8867 22.2461 84.3105 22.041 83.8711 21.6309C83.4414 21.2207 83.2266 20.6934 83.2266 20.0488ZM90.6094 31.958C90.6094 29.5264 91.1855 27.5684 92.3379 26.084C93.5 24.5996 95.0625 23.8574 97.0254 23.8574C98.7637 23.8574 100.116 24.4531 101.083 25.6445L101.259 24.1504H105.097V39.4727C105.097 40.8594 104.779 42.0654 104.145 43.0908C103.52 44.1162 102.636 44.8975 101.493 45.4346C100.351 45.9717 99.0127 46.2402 97.4795 46.2402C96.3174 46.2402 95.1846 46.0059 94.0811 45.5371C92.9775 45.0781 92.1426 44.4824 91.5762 43.75L93.4512 41.1719C94.5059 42.3535 95.7852 42.9443 97.2891 42.9443C98.4121 42.9443 99.2861 42.6416 99.9111 42.0361C100.536 41.4404 100.849 40.5908 100.849 39.4873V38.6377C99.8721 39.7412 98.5879 40.293 96.9961 40.293C95.0918 40.293 93.5488 39.5508 92.3672 38.0664C91.1953 36.5723 90.6094 34.5947 90.6094 32.1338V31.958ZM94.8428 32.2656C94.8428 33.7012 95.1309 34.8291 95.707 35.6494C96.2832 36.46 97.0742 36.8652 98.0801 36.8652C99.3691 36.8652 100.292 36.3818 100.849 35.415V28.75C100.282 27.7832 99.3691 27.2998 98.1094 27.2998C97.0938 27.2998 96.293 27.7148 95.707 28.5449C95.1309 29.375 94.8428 30.6152 94.8428 32.2656ZM112.26 24.1504L112.392 25.9814C113.524 24.5654 115.043 23.8574 116.947 23.8574C118.627 23.8574 119.877 24.3506 120.697 25.3369C121.518 26.3232 121.938 27.7979 121.957 29.7607V40H117.724V29.8633C117.724 28.9648 117.528 28.3154 117.138 27.915C116.747 27.5049 116.098 27.2998 115.189 27.2998C113.998 27.2998 113.104 27.8076 112.509 28.8232V40H108.275V24.1504H112.26ZM137.118 40H132.87V24.1504H137.118V40ZM132.621 20.0488C132.621 19.4141 132.831 18.8916 133.251 18.4814C133.681 18.0713 134.262 17.8662 134.994 17.8662C135.717 17.8662 136.293 18.0713 136.723 18.4814C137.152 18.8916 137.367 19.4141 137.367 20.0488C137.367 20.6934 137.147 21.2207 136.708 21.6309C136.278 22.041 135.707 22.2461 134.994 22.2461C134.281 22.2461 133.705 22.041 133.266 21.6309C132.836 21.2207 132.621 20.6934 132.621 20.0488ZM144.516 24.1504L144.647 25.9814C145.78 24.5654 147.299 23.8574 149.203 23.8574C150.883 23.8574 152.133 24.3506 152.953 25.3369C153.773 26.3232 154.193 27.7979 154.213 29.7607V40H149.979V29.8633C149.979 28.9648 149.784 28.3154 149.394 27.915C149.003 27.5049 148.354 27.2998 147.445 27.2998C146.254 27.2998 145.36 27.8076 144.765 28.8232V40H140.531V24.1504H144.516Z" fill="#1D24BF"/>
</svg>
