<svg width="221" height="58" viewBox="0 0 221 58" fill="none" xmlns="http://www.w3.org/2000/svg">
<rect width="221" height="58" rx="15" fill="#E8E8E8"/>
<path d="M96.5508 37.3047C95.7598 38.252 94.6416 38.9893 93.1963 39.5166C91.751 40.0342 90.1494 40.293 88.3916 40.293C86.5459 40.293 84.9248 39.8926 83.5283 39.0918C82.1416 38.2812 81.0674 37.1094 80.3057 35.5762C79.5537 34.043 79.168 32.2412 79.1484 30.1709V28.7207C79.1484 26.5918 79.5049 24.751 80.2178 23.1982C80.9404 21.6357 81.9756 20.4443 83.3232 19.624C84.6807 18.7939 86.2676 18.3789 88.084 18.3789C90.6133 18.3789 92.5908 18.9844 94.0166 20.1953C95.4424 21.3965 96.2871 23.1494 96.5508 25.4541H92.2734C92.0781 24.2334 91.6436 23.3398 90.9697 22.7734C90.3057 22.207 89.3877 21.9238 88.2158 21.9238C86.7217 21.9238 85.584 22.4854 84.8027 23.6084C84.0215 24.7314 83.626 26.4014 83.6162 28.6182V29.9805C83.6162 32.2168 84.041 33.9062 84.8906 35.0488C85.7402 36.1914 86.9854 36.7627 88.626 36.7627C90.2764 36.7627 91.4531 36.4111 92.1562 35.708V32.0312H88.1572V28.7939H96.5508V37.3047ZM103.816 24.1504L103.948 25.9229C105.071 24.5459 106.59 23.8574 108.504 23.8574C110.545 23.8574 111.946 24.6631 112.708 26.2744C113.821 24.6631 115.408 23.8574 117.469 23.8574C119.188 23.8574 120.467 24.3604 121.307 25.3662C122.146 26.3623 122.566 27.8662 122.566 29.8779V40H118.318V29.8926C118.318 28.9941 118.143 28.3398 117.791 27.9297C117.439 27.5098 116.819 27.2998 115.931 27.2998C114.661 27.2998 113.782 27.9053 113.294 29.1162L113.309 40H109.075V29.9072C109.075 28.9893 108.895 28.3252 108.533 27.915C108.172 27.5049 107.557 27.2998 106.688 27.2998C105.486 27.2998 104.617 27.7979 104.08 28.7939V40H99.8467V24.1504H103.816ZM135.018 40C134.822 39.6191 134.681 39.1455 134.593 38.5791C133.567 39.7217 132.234 40.293 130.594 40.293C129.041 40.293 127.752 39.8438 126.727 38.9453C125.711 38.0469 125.203 36.9141 125.203 35.5469C125.203 33.8672 125.823 32.5781 127.063 31.6797C128.313 30.7812 130.115 30.3271 132.469 30.3174H134.417V29.4092C134.417 28.6768 134.227 28.0908 133.846 27.6514C133.475 27.2119 132.884 26.9922 132.073 26.9922C131.36 26.9922 130.799 27.1631 130.389 27.5049C129.988 27.8467 129.788 28.3154 129.788 28.9111H125.555C125.555 27.9932 125.838 27.1436 126.404 26.3623C126.971 25.5811 127.771 24.9707 128.807 24.5312C129.842 24.082 131.004 23.8574 132.293 23.8574C134.246 23.8574 135.794 24.3506 136.937 25.3369C138.089 26.3135 138.665 27.6904 138.665 29.4678V36.3379C138.675 37.8418 138.885 38.9795 139.295 39.751V40H135.018ZM131.517 37.0557C132.142 37.0557 132.718 36.9189 133.245 36.6455C133.772 36.3623 134.163 35.9863 134.417 35.5176V32.793H132.835C130.716 32.793 129.588 33.5254 129.451 34.9902L129.437 35.2393C129.437 35.7666 129.622 36.2012 129.993 36.543C130.364 36.8848 130.872 37.0557 131.517 37.0557ZM146.385 40H142.137V24.1504H146.385V40ZM141.888 20.0488C141.888 19.4141 142.098 18.8916 142.518 18.4814C142.947 18.0713 143.528 17.8662 144.261 17.8662C144.983 17.8662 145.56 18.0713 145.989 18.4814C146.419 18.8916 146.634 19.4141 146.634 20.0488C146.634 20.6934 146.414 21.2207 145.975 21.6309C145.545 22.041 144.974 22.2461 144.261 22.2461C143.548 22.2461 142.972 22.041 142.532 21.6309C142.103 21.2207 141.888 20.6934 141.888 20.0488ZM154.354 40H150.105V17.5H154.354V40Z" fill="#1D24BF"/>
<path d="M22 21.4157L30.2527 27.891V42.9304H22.065L22 21.4157Z" fill="#1D24BF"/>
<path d="M58 21.2765L49.9422 27.8146V43H57.9366L58 21.2765Z" fill="#1D24BF"/>
<path d="M22 17.0989V21.4854L30.3177 28.0303V16.7507C27.7704 14.1885 26.0505 13.8728 25.509 14.0353C23.6895 13.9239 22.4116 16.0313 22 17.0989Z" fill="#1D24BF"/>
<path d="M58 17.1342V21.5207L49.6823 28.0656V16.7861C52.2296 14.2238 53.9495 13.9081 54.491 14.0706C56.3105 13.9592 57.5884 16.0666 58 17.1342Z" fill="#1D24BF"/>
<path d="M30.2527 16.6811V28.0303L40.065 35.8981L49.7473 28.0999V16.7507L40.065 24.5489L30.2527 16.6811Z" fill="#1D24BF"/>
</svg>
