<svg width="35" height="23" viewBox="0 0 35 23" fill="none" xmlns="http://www.w3.org/2000/svg">
<path fill-rule="evenodd" clip-rule="evenodd" d="M0.959846 23C0.639897 22.9741 0 22.7358 0 21.9899V15.0743C0 14.9189 0.0738343 14.577 0.369171 14.4527V0.777027C0.369171 0.518018 0.51684 0 1.10751 0H33.8161C34.0868 0 34.6283 0.170946 34.6283 0.85473V14.4527C34.7513 14.5563 34.9974 14.8412 34.9974 15.152V21.8345C35.0221 22.223 34.8793 23 34.1114 23H29.9029C29.5829 21.3423 28.9283 17.9649 28.8692 17.7162C28.8101 17.4676 28.6477 17.4054 28.5739 17.4054H6.27591C6.09871 17.4054 6.00519 17.6126 5.98058 17.7162L5.02073 23H0.959846ZM7.23872 10.1791C7.35685 8.18987 8.95856 7.18973 9.67229 7.13793H25.0298C25.7928 7.18973 27.6111 8.11216 27.6111 10.1014C27.6111 12.0905 25.7928 13.0085 25.0298 13.0862H9.67229C7.72307 12.7132 7.18949 10.9302 7.23872 10.1791Z" fill="white"/>
<path fill-rule="evenodd" clip-rule="evenodd" d="M5.75907 23H29.2384L28.3524 18.1824H6.64508L5.75907 23ZM9.74612 21.7568C9.74612 22.1859 9.41556 22.5338 9.00778 22.5338C8.60001 22.5338 8.26944 22.1859 8.26944 21.7568C8.26944 21.3276 8.60001 20.9797 9.00778 20.9797C9.41556 20.9797 9.74612 21.3276 9.74612 21.7568ZM17.5726 20.2027C17.9803 20.2027 18.3109 19.8548 18.3109 19.4257C18.3109 18.9965 17.9803 18.6486 17.5726 18.6486C17.1648 18.6486 16.8342 18.9965 16.8342 19.4257C16.8342 19.8548 17.1648 20.2027 17.5726 20.2027ZM26.728 21.7568C26.728 22.1859 26.3974 22.5338 25.9897 22.5338C25.5819 22.5338 25.2513 22.1859 25.2513 21.7568C25.2513 21.3276 25.5819 20.9797 25.9897 20.9797C26.3974 20.9797 26.728 21.3276 26.728 21.7568ZM11.9612 20.3581C11.8796 20.3581 11.8135 20.4277 11.8135 20.5135V21.7568C11.8135 21.8426 11.8796 21.9122 11.9612 21.9122H13.1425C13.2241 21.9122 13.2902 21.8426 13.2902 21.7568V20.5135C13.2902 20.4277 13.2241 20.3581 13.1425 20.3581H11.9612ZM21.7073 20.5135C21.7073 20.4277 21.7734 20.3581 21.8549 20.3581H23.0363C23.1178 20.3581 23.184 20.4277 23.184 20.5135V21.7568C23.184 21.8426 23.1178 21.9122 23.0363 21.9122H21.8549C21.7734 21.9122 21.7073 21.8426 21.7073 21.7568V20.5135Z" fill="white"/>
<path fill-rule="evenodd" clip-rule="evenodd" d="M10.263 12.7658C11.5271 12.7658 12.7423 11.5094 12.7423 10.1791C12.7423 8.84872 11.5271 7.61487 10.263 7.61487C8.99886 7.61487 7.77778 8.84872 7.77778 10.1791C7.77778 11.5094 8.99886 12.7658 10.263 12.7658ZM10.263 12.1216C11.2824 12.1216 12.1088 11.2519 12.1088 10.1791C12.1088 9.1062 11.2824 8.23649 10.263 8.23649C9.24352 8.23649 8.41711 9.1062 8.41711 10.1791C8.41711 11.2519 9.24352 12.1216 10.263 12.1216Z" fill="white"/>
<path fill-rule="evenodd" clip-rule="evenodd" d="M24.5868 12.6021C25.8509 12.6021 27.0549 11.354 27.0549 10.0236C27.0549 8.69331 25.8509 7.48094 24.5868 7.48094C23.3227 7.48094 22.1667 8.69331 22.1667 10.0236C22.1667 11.354 23.3227 12.6021 24.5868 12.6021ZM24.5868 11.9662C25.6063 11.9662 26.4327 11.0965 26.4327 10.0236C26.4327 8.9508 25.6063 8.08108 24.5868 8.08108C23.5674 8.08108 22.741 8.9508 22.741 10.0236C22.741 11.0965 23.5674 11.9662 24.5868 11.9662Z" fill="white"/>
<path fill-rule="evenodd" clip-rule="evenodd" d="M13.807 11.5H14.1023V10.4899H14.6192V11.1892H14.8407V10.4899H15.2837V11.1892H15.5052V10.4899H15.9482V11.1892H16.1697V10.4899H16.6127V11.1892H16.8342V10.4899H17.2772V11.5H17.7202V10.4899H18.1632V11.1892H18.3847V10.4899H18.8277V11.1892H19.0492V10.4899H19.4922V11.1892H19.7138V10.4899H20.1568V11.1892H20.3783V10.4899H20.8213V11.5H21.2643V7.84797H13.807V11.5ZM14.693 10.1791H17.4987C17.4987 9.53153 17.543 8.23649 17.7202 8.23649H14.3977C14.4961 8.39189 14.693 8.99797 14.693 10.1791Z" fill="white"/>
</svg>
