<svg width="31" height="25" viewBox="0 0 31 25" fill="none" xmlns="http://www.w3.org/2000/svg">
<path d="M15.4371 4.95978L4.42599 14.0373C4.42599 14.0501 4.42278 14.0689 4.41634 14.0946C4.41003 14.1201 4.40668 14.1386 4.40668 14.1518V23.3437C4.40668 23.6756 4.52801 23.9632 4.77062 24.2054C5.01316 24.4477 5.30038 24.5697 5.63233 24.5697H12.9857V17.2159H17.8886V24.5699H25.2419C25.5738 24.5699 25.8614 24.4483 26.1036 24.2054C26.3462 23.9635 26.468 23.6756 26.468 23.3437V14.1518C26.468 14.1008 26.461 14.0623 26.4486 14.0373L15.4371 4.95978Z" fill="white"/>
<path d="M30.6612 11.969L26.4676 8.48372V0.67041C26.4676 0.49179 26.4102 0.344897 26.2949 0.229931C26.1806 0.1151 26.0337 0.0576841 25.8547 0.0576841H22.178C21.9991 0.0576841 21.8523 0.1151 21.7373 0.229931C21.6225 0.344897 21.5652 0.491857 21.5652 0.67041V4.40465L16.8926 0.497894C16.4846 0.165942 15.9993 0 15.4375 0C14.8758 0 14.3906 0.165942 13.9822 0.497894L0.212797 11.969C0.0851547 12.071 0.0151962 12.2082 0.00218377 12.3806C-0.0107616 12.5529 0.0338429 12.7033 0.136131 12.8309L1.32341 14.248C1.4257 14.3629 1.55958 14.4331 1.72559 14.4588C1.87886 14.4717 2.03212 14.4269 2.18539 14.3248L15.4371 3.27478L28.689 14.3247C28.7914 14.4138 28.9252 14.4582 29.0912 14.4582H29.1487C29.3145 14.433 29.4481 14.3623 29.5509 14.2478L30.7383 12.8308C30.8404 12.703 30.8852 12.5528 30.8719 12.3803C30.8588 12.2084 30.7886 12.0712 30.6612 11.969Z" fill="white"/>
</svg>
