<svg width="35" height="27" viewBox="0 0 35 27" fill="none" xmlns="http://www.w3.org/2000/svg">
<path d="M14.2237 14.3041L10.7043 11.2063L0.64209 19.8806C1.00784 20.2219 1.50161 20.4344 2.04617 20.4344H26.4012C26.9437 20.4344 27.4355 20.2219 27.7992 19.8806L17.743 11.2063L14.2237 14.3041Z" fill="white"/>
<path d="M27.8053 0.553766C27.4395 0.210472 26.9478 0 26.4012 0H2.04614C1.5036 0 1.01187 0.212515 0.646118 0.557853L14.2237 12.2605L27.8053 0.553766Z" fill="white"/>
<path d="M6.10352e-05 1.79425V18.7711L9.8205 10.3787L6.10352e-05 1.79425Z" fill="white"/>
<path d="M18.627 10.3786L28.4474 18.771V1.78796L18.627 10.3786Z" fill="white"/>
<path fill-rule="evenodd" clip-rule="evenodd" d="M2.81519 21.583V21.5862L2.81899 21.583H2.81519ZM4.74815 21.583L3.45727 22.6958C3.82303 23.0371 4.31679 23.2496 4.86136 23.2496H29.2164C29.7589 23.2496 30.2507 23.0371 30.6144 22.6958L28.5679 20.9305C28.2022 21.3314 27.6755 21.583 27.0901 21.583H4.74815ZM29.0851 19.7253L31.2626 21.5862V4.60314L29.0901 6.5036V19.583C29.0901 19.6308 29.0884 19.6783 29.0851 19.7253ZM29.0901 4.68802L30.6204 3.3689C30.2547 3.0256 29.763 2.81512 29.2164 2.81512H29.0901V4.68802Z" fill="white"/>
<path fill-rule="evenodd" clip-rule="evenodd" d="M5.63037 24.3981V24.4014L5.63421 24.3981H5.63037ZM7.56337 24.3981L6.27246 25.511C6.63821 25.8522 7.13197 26.0648 7.67654 26.0648H32.0315C32.5741 26.0648 33.0658 25.8522 33.4295 25.511L31.3831 23.7457C31.0173 24.1466 30.4907 24.3981 29.9052 24.3981H7.56337ZM31.9002 22.5405L34.0777 24.4014V7.41833L31.9052 9.31878V22.3981C31.9052 22.446 31.9036 22.4935 31.9002 22.5405ZM31.9052 7.50319L33.4356 6.18408C33.0698 5.84078 32.5781 5.63031 32.0315 5.63031H31.9052V7.50319Z" fill="white"/>
</svg>
