<svg width="20" height="9" viewBox="0 0 20 9" fill="none" xmlns="http://www.w3.org/2000/svg">
<path d="M5.11719 6.53516H2.54883L2.06055 8H0.50293L3.14941 0.890625H4.50684L7.16797 8H5.61035L5.11719 6.53516ZM2.94434 5.34863H4.72168L3.82812 2.6875L2.94434 5.34863ZM13.3496 7.10156C13.0859 7.41732 12.7132 7.66309 12.2314 7.83887C11.7497 8.01139 11.2158 8.09766 10.6299 8.09766C10.0146 8.09766 9.47428 7.96419 9.00879 7.69727C8.54655 7.42708 8.18848 7.03646 7.93457 6.52539C7.68392 6.01432 7.55534 5.41374 7.54883 4.72363V4.24023C7.54883 3.5306 7.66764 2.91699 7.90527 2.39941C8.14616 1.87858 8.49121 1.48145 8.94043 1.20801C9.3929 0.931315 9.92188 0.792969 10.5273 0.792969C11.3704 0.792969 12.0296 0.994792 12.5049 1.39844C12.9801 1.79883 13.2617 2.38314 13.3496 3.15137H11.9238C11.8587 2.74447 11.7139 2.44661 11.4893 2.25781C11.2679 2.06901 10.9619 1.97461 10.5713 1.97461C10.0732 1.97461 9.69401 2.16178 9.43359 2.53613C9.17318 2.91048 9.04134 3.46712 9.03809 4.20605V4.66016C9.03809 5.4056 9.17969 5.96875 9.46289 6.34961C9.74609 6.73047 10.1611 6.9209 10.708 6.9209C11.2581 6.9209 11.6504 6.80371 11.8848 6.56934V5.34375H10.5518V4.26465H13.3496V7.10156ZM18.8184 4.91895H16.0059V6.82324H19.3066V8H14.541V0.890625H19.2969V2.07715H16.0059V3.77148H18.8184V4.91895Z" fill="white"/>
</svg>
